# xmcd
#
# Track frame offsets: 
#        225
#        18011
#        33991
#
# Disc length: 682 seconds
#
# Revision: 0
# Processed by: cddbd v1.5.1PL0 Copyright (c) Steve Scherf et al.
# Submitted via: ExactAudioCopy v0.95b1
#
DISCID=1502a703
DTITLE=Die Landeier - So wie du ist keine Kuh
DYEAR=2001
DGENRE=Vocal
TTITLE0=So wie du ist keine Kuh
TTITLE1=Die Mädchen aus Harsewinkel
TTITLE2=Karneval im Bullenstall
EXTD=
EXTT0=
EXTT1=
EXTT2=
PLAYORDER=
